User Type,Username,Date,Text
,808jucas,2011-02-17T09:10Z,"GOOD RIP. HAVENT WATCHED THE MOVIE YET BUT AUDIO/VIDEO IS GREAT.

IS IT POSSIBLE TO GET A GOOD QUALITY RIP OF THE MOVIE MYSTERY ALASKA? CANT FIND A GOOD RIP"
,ClarkyAssNugget,2011-02-17T22:29Z,GG caps
,bv_abhi,2011-02-18T07:48Z,"Video
ID                               : 1
Format                           : AVC
Format/Info                      : Advanced Video Codec
Format profile                   : High@L4.1
Format settings, CABAC           : Yes
Format settings, ReFrames        : 4 frames
Codec ID                         : avc1
Codec ID/Info                    : Advanced Video Coding
Duration                         : 1h 37mn
Bit rate mode                    : Variable
Bit rate                         : 2 518 Kbps
Maximum bit rate                 : 15.3 Mbps
Width                            : 1 280 pixels
Height                           : 528 pixels
Display aspect ratio             : 2.424
Frame rate mode                  : Constant
Frame rate                       : 23.976 fps
Resolution                       : 24 bits
Colorimetry                      : 4:2:0
Scan type                        : Progressive
Bits/(Pixel*Frame)               : 0.155
Stream size                      : 1.72 GiB (86%)
Writing library                  : x264 core 104 r1677 19df41a

Audio
ID                               : 2
Format                           : AAC
Format/Info                      : Advanced Audio Codec
Format version                   : Version 4
Format profile                   : LC
Format settings, SBR             : No
Codec ID                         : 40
Duration                         : 1h 37mn
Bit rate mode                    : Variable
Bit rate                         : 401 Kbps
Maximum bit rate                 : 420 Kbps
Channel(s)                       : 6 channels
Channel positions                : Front: L C R, Rear: L R, LFE
Sampling rate                    : 48.0 KHz
Resolution                       : 16 bits
Stream size                      : 281 MiB (14%)"
